<svg width="82" height="80" viewBox="0 0 82 80" fill="none" xmlns="http://www.w3.org/2000/svg">
<g id="Brand/Logo" clip-path="url(#clip0_14_5)">
<path id="Vector" d="M40.9605 0.13179C18.4073 0.13179 0.123474 17.9692 0.123474 39.9723C0.123474 61.9764 18.4073 79.8123 40.9605 79.8123C63.5161 79.8123 81.798 61.9764 81.798 39.9723C81.798 17.9706 63.5166 0.13179 40.9605 0.13179ZM59.6881 57.5932C58.9566 58.7636 57.3864 59.1347 56.1868 58.4163C46.5987 52.7025 34.5284 51.4085 20.3135 54.577C18.9437 54.8815 17.5783 54.0441 17.2662 52.7073C16.9527 51.3704 17.8075 50.0383 19.1807 49.7338C34.7367 46.2665 48.0801 47.7594 58.8444 54.1773C60.0441 54.8957 60.4244 56.4229 59.6881 57.5932ZM64.6865 46.7451C63.7648 48.2066 61.8045 48.6681 60.3074 47.7689C49.3305 41.1864 32.5978 39.2801 19.6142 43.1251C17.9304 43.6213 16.1519 42.6955 15.6409 41.0556C15.1337 39.4128 16.0832 37.6811 17.7641 37.1815C32.5949 32.7913 51.0323 34.9179 63.638 42.4752C65.1351 43.3744 65.6081 45.2865 64.6865 46.7451ZM65.1156 35.4488C51.954 27.822 30.2391 27.1208 17.6729 30.8417C15.655 31.4387 13.5211 30.3274 12.9096 28.3587C12.2981 26.3891 13.4362 24.3086 15.4556 23.7101C29.8807 19.4378 53.8607 20.2633 69.0138 29.0395C70.8328 30.0904 71.4277 32.3774 70.35 34.1458C69.2772 35.9165 66.9248 36.5003 65.1156 35.4488Z" fill="#F5F5F5"/>
</g>
<defs>
<clipPath id="clip0_14_5">
<rect width="82" height="80" fill="white"/>
</clipPath>
</defs>
</svg>
